<?xml version="1.0" encoding="UTF-8" ?>
<svg version="1.1" width="128" height="128" xmlns="http://www.w3.org/2000/svg" shape-rendering="crispEdges">
<rect x="62" y="22" width="1" height="1" fill="#000000" opacity="0.490196" />
<rect x="63" y="22" width="1" height="1" fill="#000000" opacity="0.490196" />
<rect x="64" y="22" width="1" height="1" fill="#000000" opacity="0.490196" />
<rect x="65" y="22" width="1" height="1" fill="#000000" opacity="0.490196" />
<rect x="62" y="23" width="1" height="1" fill="#000000" opacity="0.490196" />
<rect x="63" y="23" width="1" height="1" fill="#000000" opacity="0.490196" />
<rect x="64" y="23" width="1" height="1" fill="#000000" opacity="0.490196" />
<rect x="65" y="23" width="1" height="1" fill="#000000" opacity="0.490196" />
<rect x="62" y="24" width="1" height="1" fill="#000000" />
<rect x="63" y="24" width="1" height="1" fill="#000000" />
<rect x="64" y="24" width="1" height="1" fill="#000000" />
<rect x="65" y="24" width="1" height="1" fill="#000000" />
<rect x="62" y="25" width="1" height="1" fill="#000000" />
<rect x="63" y="25" width="1" height="1" fill="#000000" />
<rect x="64" y="25" width="1" height="1" fill="#000000" />
<rect x="65" y="25" width="1" height="1" fill="#000000" />
<rect x="62" y="26" width="1" height="1" fill="#000000" />
<rect x="63" y="26" width="1" height="1" fill="#000000" />
<rect x="64" y="26" width="1" height="1" fill="#000000" />
<rect x="65" y="26" width="1" height="1" fill="#000000" />
<rect x="62" y="27" width="1" height="1" fill="#000000" />
<rect x="63" y="27" width="1" height="1" fill="#000000" />
<rect x="64" y="27" width="1" height="1" fill="#000000" />
<rect x="65" y="27" width="1" height="1" fill="#000000" />
<rect x="62" y="28" width="1" height="1" fill="#000000" />
<rect x="63" y="28" width="1" height="1" fill="#000000" />
<rect x="64" y="28" width="1" height="1" fill="#000000" />
<rect x="65" y="28" width="1" height="1" fill="#000000" />
<rect x="62" y="29" width="1" height="1" fill="#000000" />
<rect x="63" y="29" width="1" height="1" fill="#000000" />
<rect x="64" y="29" width="1" height="1" fill="#000000" />
<rect x="65" y="29" width="1" height="1" fill="#000000" />
<rect x="62" y="30" width="1" height="1" fill="#000000" />
<rect x="63" y="30" width="1" height="1" fill="#000000" />
<rect x="64" y="30" width="1" height="1" fill="#000000" />
<rect x="65" y="30" width="1" height="1" fill="#000000" />
<rect x="62" y="31" width="1" height="1" fill="#000000" />
<rect x="63" y="31" width="1" height="1" fill="#000000" />
<rect x="64" y="31" width="1" height="1" fill="#000000" />
<rect x="65" y="31" width="1" height="1" fill="#000000" />
<rect x="60" y="32" width="1" height="1" fill="#000000" opacity="0.490196" />
<rect x="61" y="32" width="1" height="1" fill="#000000" opacity="0.490196" />
<rect x="62" y="32" width="1" height="1" fill="#000000" />
<rect x="63" y="32" width="1" height="1" fill="#000000" />
<rect x="64" y="32" width="1" height="1" fill="#000000" />
<rect x="65" y="32" width="1" height="1" fill="#000000" />
<rect x="66" y="32" width="1" height="1" fill="#000000" opacity="0.490196" />
<rect x="67" y="32" width="1" height="1" fill="#000000" opacity="0.490196" />
<rect x="60" y="33" width="1" height="1" fill="#000000" opacity="0.490196" />
<rect x="61" y="33" width="1" height="1" fill="#000000" opacity="0.490196" />
<rect x="62" y="33" width="1" height="1" fill="#000000" />
<rect x="63" y="33" width="1" height="1" fill="#000000" />
<rect x="64" y="33" width="1" height="1" fill="#000000" />
<rect x="65" y="33" width="1" height="1" fill="#000000" />
<rect x="66" y="33" width="1" height="1" fill="#000000" opacity="0.490196" />
<rect x="67" y="33" width="1" height="1" fill="#000000" opacity="0.490196" />
<rect x="60" y="34" width="1" height="1" fill="#000000" />
<rect x="61" y="34" width="1" height="1" fill="#000000" />
<rect x="62" y="34" width="1" height="1" fill="#000000" />
<rect x="63" y="34" width="1" height="1" fill="#000000" />
<rect x="64" y="34" width="1" height="1" fill="#000000" />
<rect x="65" y="34" width="1" height="1" fill="#000000" />
<rect x="66" y="34" width="1" height="1" fill="#000000" />
<rect x="67" y="34" width="1" height="1" fill="#000000" />
<rect x="60" y="35" width="1" height="1" fill="#000000" />
<rect x="61" y="35" width="1" height="1" fill="#000000" />
<rect x="62" y="35" width="1" height="1" fill="#000000" />
<rect x="63" y="35" width="1" height="1" fill="#000000" />
<rect x="64" y="35" width="1" height="1" fill="#000000" />
<rect x="65" y="35" width="1" height="1" fill="#000000" />
<rect x="66" y="35" width="1" height="1" fill="#000000" />
<rect x="67" y="35" width="1" height="1" fill="#000000" />
<rect x="60" y="36" width="1" height="1" fill="#000000" />
<rect x="61" y="36" width="1" height="1" fill="#000000" />
<rect x="62" y="36" width="1" height="1" fill="#000000" />
<rect x="63" y="36" width="1" height="1" fill="#000000" />
<rect x="64" y="36" width="1" height="1" fill="#000000" />
<rect x="65" y="36" width="1" height="1" fill="#000000" />
<rect x="66" y="36" width="1" height="1" fill="#000000" />
<rect x="67" y="36" width="1" height="1" fill="#000000" />
<rect x="60" y="37" width="1" height="1" fill="#000000" />
<rect x="61" y="37" width="1" height="1" fill="#000000" />
<rect x="62" y="37" width="1" height="1" fill="#000000" />
<rect x="63" y="37" width="1" height="1" fill="#000000" />
<rect x="64" y="37" width="1" height="1" fill="#000000" />
<rect x="65" y="37" width="1" height="1" fill="#000000" />
<rect x="66" y="37" width="1" height="1" fill="#000000" />
<rect x="67" y="37" width="1" height="1" fill="#000000" />
<rect x="60" y="38" width="1" height="1" fill="#000000" />
<rect x="61" y="38" width="1" height="1" fill="#000000" />
<rect x="62" y="38" width="1" height="1" fill="#663931" />
<rect x="63" y="38" width="1" height="1" fill="#663931" />
<rect x="64" y="38" width="1" height="1" fill="#663931" />
<rect x="65" y="38" width="1" height="1" fill="#663931" />
<rect x="66" y="38" width="1" height="1" fill="#000000" />
<rect x="67" y="38" width="1" height="1" fill="#000000" />
<rect x="60" y="39" width="1" height="1" fill="#000000" />
<rect x="61" y="39" width="1" height="1" fill="#000000" />
<rect x="62" y="39" width="1" height="1" fill="#663931" />
<rect x="63" y="39" width="1" height="1" fill="#663931" />
<rect x="64" y="39" width="1" height="1" fill="#663931" />
<rect x="65" y="39" width="1" height="1" fill="#663931" />
<rect x="66" y="39" width="1" height="1" fill="#000000" />
<rect x="67" y="39" width="1" height="1" fill="#000000" />
<rect x="60" y="40" width="1" height="1" fill="#000000" />
<rect x="61" y="40" width="1" height="1" fill="#000000" />
<rect x="62" y="40" width="1" height="1" fill="#663931" />
<rect x="63" y="40" width="1" height="1" fill="#663931" />
<rect x="64" y="40" width="1" height="1" fill="#663931" />
<rect x="65" y="40" width="1" height="1" fill="#663931" />
<rect x="66" y="40" width="1" height="1" fill="#000000" />
<rect x="67" y="40" width="1" height="1" fill="#000000" />
<rect x="60" y="41" width="1" height="1" fill="#000000" />
<rect x="61" y="41" width="1" height="1" fill="#000000" />
<rect x="62" y="41" width="1" height="1" fill="#663931" />
<rect x="63" y="41" width="1" height="1" fill="#663931" />
<rect x="64" y="41" width="1" height="1" fill="#663931" />
<rect x="65" y="41" width="1" height="1" fill="#663931" />
<rect x="66" y="41" width="1" height="1" fill="#000000" />
<rect x="67" y="41" width="1" height="1" fill="#000000" />
<rect x="60" y="42" width="1" height="1" fill="#000000" />
<rect x="61" y="42" width="1" height="1" fill="#000000" />
<rect x="62" y="42" width="1" height="1" fill="#663931" />
<rect x="63" y="42" width="1" height="1" fill="#663931" />
<rect x="64" y="42" width="1" height="1" fill="#663931" />
<rect x="65" y="42" width="1" height="1" fill="#663931" />
<rect x="66" y="42" width="1" height="1" fill="#000000" />
<rect x="67" y="42" width="1" height="1" fill="#000000" />
<rect x="60" y="43" width="1" height="1" fill="#000000" />
<rect x="61" y="43" width="1" height="1" fill="#000000" />
<rect x="62" y="43" width="1" height="1" fill="#663931" />
<rect x="63" y="43" width="1" height="1" fill="#663931" />
<rect x="64" y="43" width="1" height="1" fill="#663931" />
<rect x="65" y="43" width="1" height="1" fill="#663931" />
<rect x="66" y="43" width="1" height="1" fill="#000000" />
<rect x="67" y="43" width="1" height="1" fill="#000000" />
<rect x="60" y="44" width="1" height="1" fill="#000000" />
<rect x="61" y="44" width="1" height="1" fill="#000000" />
<rect x="62" y="44" width="1" height="1" fill="#663931" />
<rect x="63" y="44" width="1" height="1" fill="#663931" />
<rect x="64" y="44" width="1" height="1" fill="#663931" />
<rect x="65" y="44" width="1" height="1" fill="#663931" />
<rect x="66" y="44" width="1" height="1" fill="#000000" />
<rect x="67" y="44" width="1" height="1" fill="#000000" />
<rect x="60" y="45" width="1" height="1" fill="#000000" />
<rect x="61" y="45" width="1" height="1" fill="#000000" />
<rect x="62" y="45" width="1" height="1" fill="#663931" />
<rect x="63" y="45" width="1" height="1" fill="#663931" />
<rect x="64" y="45" width="1" height="1" fill="#663931" />
<rect x="65" y="45" width="1" height="1" fill="#663931" />
<rect x="66" y="45" width="1" height="1" fill="#000000" />
<rect x="67" y="45" width="1" height="1" fill="#000000" />
<rect x="58" y="46" width="1" height="1" fill="#000000" opacity="0.490196" />
<rect x="59" y="46" width="1" height="1" fill="#000000" opacity="0.490196" />
<rect x="60" y="46" width="1" height="1" fill="#000000" />
<rect x="61" y="46" width="1" height="1" fill="#000000" />
<rect x="62" y="46" width="1" height="1" fill="#663931" />
<rect x="63" y="46" width="1" height="1" fill="#663931" />
<rect x="64" y="46" width="1" height="1" fill="#663931" />
<rect x="65" y="46" width="1" height="1" fill="#663931" />
<rect x="66" y="46" width="1" height="1" fill="#000000" />
<rect x="67" y="46" width="1" height="1" fill="#000000" />
<rect x="68" y="46" width="1" height="1" fill="#000000" opacity="0.490196" />
<rect x="69" y="46" width="1" height="1" fill="#000000" opacity="0.490196" />
<rect x="58" y="47" width="1" height="1" fill="#000000" opacity="0.490196" />
<rect x="59" y="47" width="1" height="1" fill="#000000" opacity="0.490196" />
<rect x="60" y="47" width="1" height="1" fill="#000000" />
<rect x="61" y="47" width="1" height="1" fill="#000000" />
<rect x="62" y="47" width="1" height="1" fill="#663931" />
<rect x="63" y="47" width="1" height="1" fill="#663931" />
<rect x="64" y="47" width="1" height="1" fill="#663931" />
<rect x="65" y="47" width="1" height="1" fill="#663931" />
<rect x="66" y="47" width="1" height="1" fill="#000000" />
<rect x="67" y="47" width="1" height="1" fill="#000000" />
<rect x="68" y="47" width="1" height="1" fill="#000000" opacity="0.490196" />
<rect x="69" y="47" width="1" height="1" fill="#000000" opacity="0.490196" />
<rect x="58" y="48" width="1" height="1" fill="#000000" />
<rect x="59" y="48" width="1" height="1" fill="#000000" />
<rect x="60" y="48" width="1" height="1" fill="#000000" />
<rect x="61" y="48" width="1" height="1" fill="#000000" />
<rect x="62" y="48" width="1" height="1" fill="#663931" />
<rect x="63" y="48" width="1" height="1" fill="#663931" />
<rect x="64" y="48" width="1" height="1" fill="#663931" />
<rect x="65" y="48" width="1" height="1" fill="#663931" />
<rect x="66" y="48" width="1" height="1" fill="#000000" />
<rect x="67" y="48" width="1" height="1" fill="#000000" />
<rect x="68" y="48" width="1" height="1" fill="#000000" />
<rect x="69" y="48" width="1" height="1" fill="#000000" />
<rect x="58" y="49" width="1" height="1" fill="#000000" />
<rect x="59" y="49" width="1" height="1" fill="#000000" />
<rect x="60" y="49" width="1" height="1" fill="#000000" />
<rect x="61" y="49" width="1" height="1" fill="#000000" />
<rect x="62" y="49" width="1" height="1" fill="#663931" />
<rect x="63" y="49" width="1" height="1" fill="#663931" />
<rect x="64" y="49" width="1" height="1" fill="#663931" />
<rect x="65" y="49" width="1" height="1" fill="#663931" />
<rect x="66" y="49" width="1" height="1" fill="#000000" />
<rect x="67" y="49" width="1" height="1" fill="#000000" />
<rect x="68" y="49" width="1" height="1" fill="#000000" />
<rect x="69" y="49" width="1" height="1" fill="#000000" />
<rect x="58" y="50" width="1" height="1" fill="#000000" />
<rect x="59" y="50" width="1" height="1" fill="#000000" />
<rect x="60" y="50" width="1" height="1" fill="#663931" />
<rect x="61" y="50" width="1" height="1" fill="#663931" />
<rect x="62" y="50" width="1" height="1" fill="#663931" />
<rect x="63" y="50" width="1" height="1" fill="#663931" />
<rect x="64" y="50" width="1" height="1" fill="#663931" />
<rect x="65" y="50" width="1" height="1" fill="#663931" />
<rect x="66" y="50" width="1" height="1" fill="#663931" />
<rect x="67" y="50" width="1" height="1" fill="#663931" />
<rect x="68" y="50" width="1" height="1" fill="#000000" />
<rect x="69" y="50" width="1" height="1" fill="#000000" />
<rect x="58" y="51" width="1" height="1" fill="#000000" />
<rect x="59" y="51" width="1" height="1" fill="#000000" />
<rect x="60" y="51" width="1" height="1" fill="#663931" />
<rect x="61" y="51" width="1" height="1" fill="#663931" />
<rect x="62" y="51" width="1" height="1" fill="#663931" />
<rect x="63" y="51" width="1" height="1" fill="#663931" />
<rect x="64" y="51" width="1" height="1" fill="#663931" />
<rect x="65" y="51" width="1" height="1" fill="#663931" />
<rect x="66" y="51" width="1" height="1" fill="#663931" />
<rect x="67" y="51" width="1" height="1" fill="#663931" />
<rect x="68" y="51" width="1" height="1" fill="#000000" />
<rect x="69" y="51" width="1" height="1" fill="#000000" />
<rect x="58" y="52" width="1" height="1" fill="#000000" />
<rect x="59" y="52" width="1" height="1" fill="#000000" />
<rect x="60" y="52" width="1" height="1" fill="#663931" />
<rect x="61" y="52" width="1" height="1" fill="#663931" />
<rect x="62" y="52" width="1" height="1" fill="#000000" />
<rect x="63" y="52" width="1" height="1" fill="#000000" />
<rect x="64" y="52" width="1" height="1" fill="#000000" />
<rect x="65" y="52" width="1" height="1" fill="#000000" />
<rect x="66" y="52" width="1" height="1" fill="#663931" />
<rect x="67" y="52" width="1" height="1" fill="#663931" />
<rect x="68" y="52" width="1" height="1" fill="#000000" />
<rect x="69" y="52" width="1" height="1" fill="#000000" />
<rect x="58" y="53" width="1" height="1" fill="#000000" />
<rect x="59" y="53" width="1" height="1" fill="#000000" />
<rect x="60" y="53" width="1" height="1" fill="#663931" />
<rect x="61" y="53" width="1" height="1" fill="#663931" />
<rect x="62" y="53" width="1" height="1" fill="#000000" />
<rect x="63" y="53" width="1" height="1" fill="#000000" />
<rect x="64" y="53" width="1" height="1" fill="#000000" />
<rect x="65" y="53" width="1" height="1" fill="#000000" />
<rect x="66" y="53" width="1" height="1" fill="#663931" />
<rect x="67" y="53" width="1" height="1" fill="#663931" />
<rect x="68" y="53" width="1" height="1" fill="#000000" />
<rect x="69" y="53" width="1" height="1" fill="#000000" />
<rect x="58" y="54" width="1" height="1" fill="#000000" />
<rect x="59" y="54" width="1" height="1" fill="#000000" />
<rect x="60" y="54" width="1" height="1" fill="#663931" />
<rect x="61" y="54" width="1" height="1" fill="#663931" />
<rect x="62" y="54" width="1" height="1" fill="#663931" />
<rect x="63" y="54" width="1" height="1" fill="#663931" />
<rect x="64" y="54" width="1" height="1" fill="#663931" />
<rect x="65" y="54" width="1" height="1" fill="#663931" />
<rect x="66" y="54" width="1" height="1" fill="#663931" />
<rect x="67" y="54" width="1" height="1" fill="#663931" />
<rect x="68" y="54" width="1" height="1" fill="#000000" />
<rect x="69" y="54" width="1" height="1" fill="#000000" />
<rect x="58" y="55" width="1" height="1" fill="#000000" />
<rect x="59" y="55" width="1" height="1" fill="#000000" />
<rect x="60" y="55" width="1" height="1" fill="#663931" />
<rect x="61" y="55" width="1" height="1" fill="#663931" />
<rect x="62" y="55" width="1" height="1" fill="#663931" />
<rect x="63" y="55" width="1" height="1" fill="#663931" />
<rect x="64" y="55" width="1" height="1" fill="#663931" />
<rect x="65" y="55" width="1" height="1" fill="#663931" />
<rect x="66" y="55" width="1" height="1" fill="#663931" />
<rect x="67" y="55" width="1" height="1" fill="#663931" />
<rect x="68" y="55" width="1" height="1" fill="#000000" />
<rect x="69" y="55" width="1" height="1" fill="#000000" />
<rect x="58" y="56" width="1" height="1" fill="#000000" />
<rect x="59" y="56" width="1" height="1" fill="#000000" />
<rect x="60" y="56" width="1" height="1" fill="#663931" />
<rect x="61" y="56" width="1" height="1" fill="#663931" />
<rect x="62" y="56" width="1" height="1" fill="#663931" />
<rect x="63" y="56" width="1" height="1" fill="#663931" />
<rect x="64" y="56" width="1" height="1" fill="#663931" />
<rect x="65" y="56" width="1" height="1" fill="#663931" />
<rect x="66" y="56" width="1" height="1" fill="#663931" />
<rect x="67" y="56" width="1" height="1" fill="#663931" />
<rect x="68" y="56" width="1" height="1" fill="#000000" />
<rect x="69" y="56" width="1" height="1" fill="#000000" />
<rect x="58" y="57" width="1" height="1" fill="#000000" />
<rect x="59" y="57" width="1" height="1" fill="#000000" />
<rect x="60" y="57" width="1" height="1" fill="#663931" />
<rect x="61" y="57" width="1" height="1" fill="#663931" />
<rect x="62" y="57" width="1" height="1" fill="#663931" />
<rect x="63" y="57" width="1" height="1" fill="#663931" />
<rect x="64" y="57" width="1" height="1" fill="#663931" />
<rect x="65" y="57" width="1" height="1" fill="#663931" />
<rect x="66" y="57" width="1" height="1" fill="#663931" />
<rect x="67" y="57" width="1" height="1" fill="#663931" />
<rect x="68" y="57" width="1" height="1" fill="#000000" />
<rect x="69" y="57" width="1" height="1" fill="#000000" />
<rect x="58" y="58" width="1" height="1" fill="#000000" />
<rect x="59" y="58" width="1" height="1" fill="#000000" />
<rect x="60" y="58" width="1" height="1" fill="#663931" />
<rect x="61" y="58" width="1" height="1" fill="#663931" />
<rect x="62" y="58" width="1" height="1" fill="#663931" />
<rect x="63" y="58" width="1" height="1" fill="#663931" />
<rect x="64" y="58" width="1" height="1" fill="#663931" />
<rect x="65" y="58" width="1" height="1" fill="#663931" />
<rect x="66" y="58" width="1" height="1" fill="#663931" />
<rect x="67" y="58" width="1" height="1" fill="#663931" />
<rect x="68" y="58" width="1" height="1" fill="#000000" />
<rect x="69" y="58" width="1" height="1" fill="#000000" />
<rect x="58" y="59" width="1" height="1" fill="#000000" />
<rect x="59" y="59" width="1" height="1" fill="#000000" />
<rect x="60" y="59" width="1" height="1" fill="#663931" />
<rect x="61" y="59" width="1" height="1" fill="#663931" />
<rect x="62" y="59" width="1" height="1" fill="#663931" />
<rect x="63" y="59" width="1" height="1" fill="#663931" />
<rect x="64" y="59" width="1" height="1" fill="#663931" />
<rect x="65" y="59" width="1" height="1" fill="#663931" />
<rect x="66" y="59" width="1" height="1" fill="#663931" />
<rect x="67" y="59" width="1" height="1" fill="#663931" />
<rect x="68" y="59" width="1" height="1" fill="#000000" />
<rect x="69" y="59" width="1" height="1" fill="#000000" />
<rect x="54" y="60" width="1" height="1" fill="#000000" opacity="0.490196" />
<rect x="55" y="60" width="1" height="1" fill="#000000" opacity="0.490196" />
<rect x="56" y="60" width="1" height="1" fill="#000000" opacity="0.490196" />
<rect x="57" y="60" width="1" height="1" fill="#000000" opacity="0.490196" />
<rect x="58" y="60" width="1" height="1" fill="#000000" />
<rect x="59" y="60" width="1" height="1" fill="#000000" />
<rect x="60" y="60" width="1" height="1" fill="#663931" />
<rect x="61" y="60" width="1" height="1" fill="#663931" />
<rect x="62" y="60" width="1" height="1" fill="#341E19" />
<rect x="63" y="60" width="1" height="1" fill="#341E19" />
<rect x="64" y="60" width="1" height="1" fill="#341E19" />
<rect x="65" y="60" width="1" height="1" fill="#341E19" />
<rect x="66" y="60" width="1" height="1" fill="#663931" />
<rect x="67" y="60" width="1" height="1" fill="#663931" />
<rect x="68" y="60" width="1" height="1" fill="#000000" />
<rect x="69" y="60" width="1" height="1" fill="#000000" />
<rect x="70" y="60" width="1" height="1" fill="#000000" opacity="0.490196" />
<rect x="71" y="60" width="1" height="1" fill="#000000" opacity="0.490196" />
<rect x="72" y="60" width="1" height="1" fill="#000000" opacity="0.490196" />
<rect x="73" y="60" width="1" height="1" fill="#000000" opacity="0.490196" />
<rect x="54" y="61" width="1" height="1" fill="#000000" opacity="0.490196" />
<rect x="55" y="61" width="1" height="1" fill="#000000" opacity="0.490196" />
<rect x="56" y="61" width="1" height="1" fill="#000000" opacity="0.490196" />
<rect x="57" y="61" width="1" height="1" fill="#000000" opacity="0.490196" />
<rect x="58" y="61" width="1" height="1" fill="#000000" />
<rect x="59" y="61" width="1" height="1" fill="#000000" />
<rect x="60" y="61" width="1" height="1" fill="#663931" />
<rect x="61" y="61" width="1" height="1" fill="#663931" />
<rect x="62" y="61" width="1" height="1" fill="#341E19" />
<rect x="63" y="61" width="1" height="1" fill="#341E19" />
<rect x="64" y="61" width="1" height="1" fill="#341E19" />
<rect x="65" y="61" width="1" height="1" fill="#341E19" />
<rect x="66" y="61" width="1" height="1" fill="#663931" />
<rect x="67" y="61" width="1" height="1" fill="#663931" />
<rect x="68" y="61" width="1" height="1" fill="#000000" />
<rect x="69" y="61" width="1" height="1" fill="#000000" />
<rect x="70" y="61" width="1" height="1" fill="#000000" opacity="0.490196" />
<rect x="71" y="61" width="1" height="1" fill="#000000" opacity="0.490196" />
<rect x="72" y="61" width="1" height="1" fill="#000000" opacity="0.490196" />
<rect x="73" y="61" width="1" height="1" fill="#000000" opacity="0.490196" />
<rect x="54" y="62" width="1" height="1" fill="#000000" />
<rect x="55" y="62" width="1" height="1" fill="#000000" />
<rect x="56" y="62" width="1" height="1" fill="#000000" />
<rect x="57" y="62" width="1" height="1" fill="#000000" />
<rect x="58" y="62" width="1" height="1" fill="#000000" />
<rect x="59" y="62" width="1" height="1" fill="#000000" />
<rect x="60" y="62" width="1" height="1" fill="#663931" />
<rect x="61" y="62" width="1" height="1" fill="#663931" />
<rect x="62" y="62" width="1" height="1" fill="#000000" />
<rect x="63" y="62" width="1" height="1" fill="#000000" />
<rect x="64" y="62" width="1" height="1" fill="#000000" />
<rect x="65" y="62" width="1" height="1" fill="#000000" />
<rect x="66" y="62" width="1" height="1" fill="#663931" />
<rect x="67" y="62" width="1" height="1" fill="#663931" />
<rect x="68" y="62" width="1" height="1" fill="#000000" />
<rect x="69" y="62" width="1" height="1" fill="#000000" />
<rect x="70" y="62" width="1" height="1" fill="#000000" />
<rect x="71" y="62" width="1" height="1" fill="#000000" />
<rect x="72" y="62" width="1" height="1" fill="#000000" />
<rect x="73" y="62" width="1" height="1" fill="#000000" />
<rect x="54" y="63" width="1" height="1" fill="#000000" />
<rect x="55" y="63" width="1" height="1" fill="#000000" />
<rect x="56" y="63" width="1" height="1" fill="#000000" />
<rect x="57" y="63" width="1" height="1" fill="#000000" />
<rect x="58" y="63" width="1" height="1" fill="#000000" />
<rect x="59" y="63" width="1" height="1" fill="#000000" />
<rect x="60" y="63" width="1" height="1" fill="#663931" />
<rect x="61" y="63" width="1" height="1" fill="#663931" />
<rect x="62" y="63" width="1" height="1" fill="#000000" />
<rect x="63" y="63" width="1" height="1" fill="#000000" />
<rect x="64" y="63" width="1" height="1" fill="#000000" />
<rect x="65" y="63" width="1" height="1" fill="#000000" />
<rect x="66" y="63" width="1" height="1" fill="#663931" />
<rect x="67" y="63" width="1" height="1" fill="#663931" />
<rect x="68" y="63" width="1" height="1" fill="#000000" />
<rect x="69" y="63" width="1" height="1" fill="#000000" />
<rect x="70" y="63" width="1" height="1" fill="#000000" />
<rect x="71" y="63" width="1" height="1" fill="#000000" />
<rect x="72" y="63" width="1" height="1" fill="#000000" />
<rect x="73" y="63" width="1" height="1" fill="#000000" />
<rect x="54" y="64" width="1" height="1" fill="#000000" />
<rect x="55" y="64" width="1" height="1" fill="#000000" />
<rect x="56" y="64" width="1" height="1" fill="#663931" />
<rect x="57" y="64" width="1" height="1" fill="#663931" />
<rect x="58" y="64" width="1" height="1" fill="#663931" />
<rect x="59" y="64" width="1" height="1" fill="#663931" />
<rect x="60" y="64" width="1" height="1" fill="#663931" />
<rect x="61" y="64" width="1" height="1" fill="#663931" />
<rect x="62" y="64" width="1" height="1" fill="#000000" />
<rect x="63" y="64" width="1" height="1" fill="#000000" />
<rect x="64" y="64" width="1" height="1" fill="#000000" />
<rect x="65" y="64" width="1" height="1" fill="#000000" />
<rect x="66" y="64" width="1" height="1" fill="#663931" />
<rect x="67" y="64" width="1" height="1" fill="#663931" />
<rect x="68" y="64" width="1" height="1" fill="#663931" />
<rect x="69" y="64" width="1" height="1" fill="#663931" />
<rect x="70" y="64" width="1" height="1" fill="#663931" />
<rect x="71" y="64" width="1" height="1" fill="#663931" />
<rect x="72" y="64" width="1" height="1" fill="#000000" />
<rect x="73" y="64" width="1" height="1" fill="#000000" />
<rect x="54" y="65" width="1" height="1" fill="#000000" />
<rect x="55" y="65" width="1" height="1" fill="#000000" />
<rect x="56" y="65" width="1" height="1" fill="#663931" />
<rect x="57" y="65" width="1" height="1" fill="#663931" />
<rect x="58" y="65" width="1" height="1" fill="#663931" />
<rect x="59" y="65" width="1" height="1" fill="#663931" />
<rect x="60" y="65" width="1" height="1" fill="#663931" />
<rect x="61" y="65" width="1" height="1" fill="#663931" />
<rect x="62" y="65" width="1" height="1" fill="#000000" />
<rect x="63" y="65" width="1" height="1" fill="#000000" />
<rect x="64" y="65" width="1" height="1" fill="#000000" />
<rect x="65" y="65" width="1" height="1" fill="#000000" />
<rect x="66" y="65" width="1" height="1" fill="#663931" />
<rect x="67" y="65" width="1" height="1" fill="#663931" />
<rect x="68" y="65" width="1" height="1" fill="#663931" />
<rect x="69" y="65" width="1" height="1" fill="#663931" />
<rect x="70" y="65" width="1" height="1" fill="#663931" />
<rect x="71" y="65" width="1" height="1" fill="#663931" />
<rect x="72" y="65" width="1" height="1" fill="#000000" />
<rect x="73" y="65" width="1" height="1" fill="#000000" />
<rect x="54" y="66" width="1" height="1" fill="#000000" />
<rect x="55" y="66" width="1" height="1" fill="#000000" />
<rect x="56" y="66" width="1" height="1" fill="#000000" />
<rect x="57" y="66" width="1" height="1" fill="#000000" />
<rect x="58" y="66" width="1" height="1" fill="#663931" />
<rect x="59" y="66" width="1" height="1" fill="#663931" />
<rect x="60" y="66" width="1" height="1" fill="#663931" />
<rect x="61" y="66" width="1" height="1" fill="#663931" />
<rect x="62" y="66" width="1" height="1" fill="#000000" />
<rect x="63" y="66" width="1" height="1" fill="#000000" />
<rect x="64" y="66" width="1" height="1" fill="#000000" />
<rect x="65" y="66" width="1" height="1" fill="#000000" />
<rect x="66" y="66" width="1" height="1" fill="#663931" />
<rect x="67" y="66" width="1" height="1" fill="#663931" />
<rect x="68" y="66" width="1" height="1" fill="#663931" />
<rect x="69" y="66" width="1" height="1" fill="#663931" />
<rect x="70" y="66" width="1" height="1" fill="#000000" />
<rect x="71" y="66" width="1" height="1" fill="#000000" />
<rect x="72" y="66" width="1" height="1" fill="#000000" />
<rect x="73" y="66" width="1" height="1" fill="#000000" />
<rect x="54" y="67" width="1" height="1" fill="#000000" />
<rect x="55" y="67" width="1" height="1" fill="#000000" />
<rect x="56" y="67" width="1" height="1" fill="#000000" />
<rect x="57" y="67" width="1" height="1" fill="#000000" />
<rect x="58" y="67" width="1" height="1" fill="#663931" />
<rect x="59" y="67" width="1" height="1" fill="#663931" />
<rect x="60" y="67" width="1" height="1" fill="#663931" />
<rect x="61" y="67" width="1" height="1" fill="#663931" />
<rect x="62" y="67" width="1" height="1" fill="#000000" />
<rect x="63" y="67" width="1" height="1" fill="#000000" />
<rect x="64" y="67" width="1" height="1" fill="#000000" />
<rect x="65" y="67" width="1" height="1" fill="#000000" />
<rect x="66" y="67" width="1" height="1" fill="#663931" />
<rect x="67" y="67" width="1" height="1" fill="#663931" />
<rect x="68" y="67" width="1" height="1" fill="#663931" />
<rect x="69" y="67" width="1" height="1" fill="#663931" />
<rect x="70" y="67" width="1" height="1" fill="#000000" />
<rect x="71" y="67" width="1" height="1" fill="#000000" />
<rect x="72" y="67" width="1" height="1" fill="#000000" />
<rect x="73" y="67" width="1" height="1" fill="#000000" />
<rect x="56" y="68" width="1" height="1" fill="#000000" />
<rect x="57" y="68" width="1" height="1" fill="#000000" />
<rect x="58" y="68" width="1" height="1" fill="#663931" />
<rect x="59" y="68" width="1" height="1" fill="#663931" />
<rect x="60" y="68" width="1" height="1" fill="#663931" />
<rect x="61" y="68" width="1" height="1" fill="#663931" />
<rect x="62" y="68" width="1" height="1" fill="#663931" />
<rect x="63" y="68" width="1" height="1" fill="#663931" />
<rect x="64" y="68" width="1" height="1" fill="#663931" />
<rect x="65" y="68" width="1" height="1" fill="#663931" />
<rect x="66" y="68" width="1" height="1" fill="#663931" />
<rect x="67" y="68" width="1" height="1" fill="#663931" />
<rect x="68" y="68" width="1" height="1" fill="#663931" />
<rect x="69" y="68" width="1" height="1" fill="#663931" />
<rect x="70" y="68" width="1" height="1" fill="#000000" />
<rect x="71" y="68" width="1" height="1" fill="#000000" />
<rect x="56" y="69" width="1" height="1" fill="#000000" />
<rect x="57" y="69" width="1" height="1" fill="#000000" />
<rect x="58" y="69" width="1" height="1" fill="#663931" />
<rect x="59" y="69" width="1" height="1" fill="#663931" />
<rect x="60" y="69" width="1" height="1" fill="#663931" />
<rect x="61" y="69" width="1" height="1" fill="#663931" />
<rect x="62" y="69" width="1" height="1" fill="#663931" />
<rect x="63" y="69" width="1" height="1" fill="#663931" />
<rect x="64" y="69" width="1" height="1" fill="#663931" />
<rect x="65" y="69" width="1" height="1" fill="#663931" />
<rect x="66" y="69" width="1" height="1" fill="#663931" />
<rect x="67" y="69" width="1" height="1" fill="#663931" />
<rect x="68" y="69" width="1" height="1" fill="#663931" />
<rect x="69" y="69" width="1" height="1" fill="#663931" />
<rect x="70" y="69" width="1" height="1" fill="#000000" />
<rect x="71" y="69" width="1" height="1" fill="#000000" />
<rect x="56" y="70" width="1" height="1" fill="#000000" />
<rect x="57" y="70" width="1" height="1" fill="#000000" />
<rect x="58" y="70" width="1" height="1" fill="#663931" />
<rect x="59" y="70" width="1" height="1" fill="#663931" />
<rect x="60" y="70" width="1" height="1" fill="#663931" />
<rect x="61" y="70" width="1" height="1" fill="#663931" />
<rect x="62" y="70" width="1" height="1" fill="#663931" />
<rect x="63" y="70" width="1" height="1" fill="#663931" />
<rect x="64" y="70" width="1" height="1" fill="#663931" />
<rect x="65" y="70" width="1" height="1" fill="#663931" />
<rect x="66" y="70" width="1" height="1" fill="#663931" />
<rect x="67" y="70" width="1" height="1" fill="#663931" />
<rect x="68" y="70" width="1" height="1" fill="#663931" />
<rect x="69" y="70" width="1" height="1" fill="#663931" />
<rect x="70" y="70" width="1" height="1" fill="#000000" />
<rect x="71" y="70" width="1" height="1" fill="#000000" />
<rect x="56" y="71" width="1" height="1" fill="#000000" />
<rect x="57" y="71" width="1" height="1" fill="#000000" />
<rect x="58" y="71" width="1" height="1" fill="#663931" />
<rect x="59" y="71" width="1" height="1" fill="#663931" />
<rect x="60" y="71" width="1" height="1" fill="#663931" />
<rect x="61" y="71" width="1" height="1" fill="#663931" />
<rect x="62" y="71" width="1" height="1" fill="#663931" />
<rect x="63" y="71" width="1" height="1" fill="#663931" />
<rect x="64" y="71" width="1" height="1" fill="#663931" />
<rect x="65" y="71" width="1" height="1" fill="#663931" />
<rect x="66" y="71" width="1" height="1" fill="#663931" />
<rect x="67" y="71" width="1" height="1" fill="#663931" />
<rect x="68" y="71" width="1" height="1" fill="#663931" />
<rect x="69" y="71" width="1" height="1" fill="#663931" />
<rect x="70" y="71" width="1" height="1" fill="#000000" />
<rect x="71" y="71" width="1" height="1" fill="#000000" />
<rect x="56" y="72" width="1" height="1" fill="#000000" />
<rect x="57" y="72" width="1" height="1" fill="#000000" />
<rect x="58" y="72" width="1" height="1" fill="#663931" />
<rect x="59" y="72" width="1" height="1" fill="#663931" />
<rect x="60" y="72" width="1" height="1" fill="#663931" />
<rect x="61" y="72" width="1" height="1" fill="#663931" />
<rect x="62" y="72" width="1" height="1" fill="#663931" />
<rect x="63" y="72" width="1" height="1" fill="#663931" />
<rect x="64" y="72" width="1" height="1" fill="#663931" />
<rect x="65" y="72" width="1" height="1" fill="#663931" />
<rect x="66" y="72" width="1" height="1" fill="#663931" />
<rect x="67" y="72" width="1" height="1" fill="#663931" />
<rect x="68" y="72" width="1" height="1" fill="#663931" />
<rect x="69" y="72" width="1" height="1" fill="#663931" />
<rect x="70" y="72" width="1" height="1" fill="#000000" />
<rect x="71" y="72" width="1" height="1" fill="#000000" />
<rect x="56" y="73" width="1" height="1" fill="#000000" />
<rect x="57" y="73" width="1" height="1" fill="#000000" />
<rect x="58" y="73" width="1" height="1" fill="#663931" />
<rect x="59" y="73" width="1" height="1" fill="#663931" />
<rect x="60" y="73" width="1" height="1" fill="#663931" />
<rect x="61" y="73" width="1" height="1" fill="#663931" />
<rect x="62" y="73" width="1" height="1" fill="#663931" />
<rect x="63" y="73" width="1" height="1" fill="#663931" />
<rect x="64" y="73" width="1" height="1" fill="#663931" />
<rect x="65" y="73" width="1" height="1" fill="#663931" />
<rect x="66" y="73" width="1" height="1" fill="#663931" />
<rect x="67" y="73" width="1" height="1" fill="#663931" />
<rect x="68" y="73" width="1" height="1" fill="#663931" />
<rect x="69" y="73" width="1" height="1" fill="#663931" />
<rect x="70" y="73" width="1" height="1" fill="#000000" />
<rect x="71" y="73" width="1" height="1" fill="#000000" />
<rect x="56" y="74" width="1" height="1" fill="#000000" />
<rect x="57" y="74" width="1" height="1" fill="#000000" />
<rect x="58" y="74" width="1" height="1" fill="#663931" />
<rect x="59" y="74" width="1" height="1" fill="#663931" />
<rect x="60" y="74" width="1" height="1" fill="#663931" />
<rect x="61" y="74" width="1" height="1" fill="#663931" />
<rect x="62" y="74" width="1" height="1" fill="#663931" />
<rect x="63" y="74" width="1" height="1" fill="#663931" />
<rect x="64" y="74" width="1" height="1" fill="#663931" />
<rect x="65" y="74" width="1" height="1" fill="#663931" />
<rect x="66" y="74" width="1" height="1" fill="#663931" />
<rect x="67" y="74" width="1" height="1" fill="#663931" />
<rect x="68" y="74" width="1" height="1" fill="#663931" />
<rect x="69" y="74" width="1" height="1" fill="#663931" />
<rect x="70" y="74" width="1" height="1" fill="#000000" />
<rect x="71" y="74" width="1" height="1" fill="#000000" />
<rect x="56" y="75" width="1" height="1" fill="#000000" />
<rect x="57" y="75" width="1" height="1" fill="#000000" />
<rect x="58" y="75" width="1" height="1" fill="#663931" />
<rect x="59" y="75" width="1" height="1" fill="#663931" />
<rect x="60" y="75" width="1" height="1" fill="#663931" />
<rect x="61" y="75" width="1" height="1" fill="#663931" />
<rect x="62" y="75" width="1" height="1" fill="#663931" />
<rect x="63" y="75" width="1" height="1" fill="#663931" />
<rect x="64" y="75" width="1" height="1" fill="#663931" />
<rect x="65" y="75" width="1" height="1" fill="#663931" />
<rect x="66" y="75" width="1" height="1" fill="#663931" />
<rect x="67" y="75" width="1" height="1" fill="#663931" />
<rect x="68" y="75" width="1" height="1" fill="#663931" />
<rect x="69" y="75" width="1" height="1" fill="#663931" />
<rect x="70" y="75" width="1" height="1" fill="#000000" />
<rect x="71" y="75" width="1" height="1" fill="#000000" />
<rect x="56" y="76" width="1" height="1" fill="#000000" />
<rect x="57" y="76" width="1" height="1" fill="#000000" />
<rect x="58" y="76" width="1" height="1" fill="#000000" />
<rect x="59" y="76" width="1" height="1" fill="#000000" />
<rect x="60" y="76" width="1" height="1" fill="#000000" />
<rect x="61" y="76" width="1" height="1" fill="#000000" />
<rect x="62" y="76" width="1" height="1" fill="#663931" />
<rect x="63" y="76" width="1" height="1" fill="#663931" />
<rect x="64" y="76" width="1" height="1" fill="#663931" />
<rect x="65" y="76" width="1" height="1" fill="#663931" />
<rect x="66" y="76" width="1" height="1" fill="#000000" />
<rect x="67" y="76" width="1" height="1" fill="#000000" />
<rect x="68" y="76" width="1" height="1" fill="#000000" />
<rect x="69" y="76" width="1" height="1" fill="#000000" />
<rect x="70" y="76" width="1" height="1" fill="#000000" />
<rect x="71" y="76" width="1" height="1" fill="#000000" />
<rect x="56" y="77" width="1" height="1" fill="#000000" />
<rect x="57" y="77" width="1" height="1" fill="#000000" />
<rect x="58" y="77" width="1" height="1" fill="#000000" />
<rect x="59" y="77" width="1" height="1" fill="#000000" />
<rect x="60" y="77" width="1" height="1" fill="#000000" />
<rect x="61" y="77" width="1" height="1" fill="#000000" />
<rect x="62" y="77" width="1" height="1" fill="#663931" />
<rect x="63" y="77" width="1" height="1" fill="#663931" />
<rect x="64" y="77" width="1" height="1" fill="#663931" />
<rect x="65" y="77" width="1" height="1" fill="#663931" />
<rect x="66" y="77" width="1" height="1" fill="#000000" />
<rect x="67" y="77" width="1" height="1" fill="#000000" />
<rect x="68" y="77" width="1" height="1" fill="#000000" />
<rect x="69" y="77" width="1" height="1" fill="#000000" />
<rect x="70" y="77" width="1" height="1" fill="#000000" />
<rect x="71" y="77" width="1" height="1" fill="#000000" />
<rect x="60" y="78" width="1" height="1" fill="#000000" />
<rect x="61" y="78" width="1" height="1" fill="#000000" />
<rect x="62" y="78" width="1" height="1" fill="#663931" />
<rect x="63" y="78" width="1" height="1" fill="#663931" />
<rect x="64" y="78" width="1" height="1" fill="#663931" />
<rect x="65" y="78" width="1" height="1" fill="#663931" />
<rect x="66" y="78" width="1" height="1" fill="#000000" />
<rect x="67" y="78" width="1" height="1" fill="#000000" />
<rect x="60" y="79" width="1" height="1" fill="#000000" />
<rect x="61" y="79" width="1" height="1" fill="#000000" />
<rect x="62" y="79" width="1" height="1" fill="#663931" />
<rect x="63" y="79" width="1" height="1" fill="#663931" />
<rect x="64" y="79" width="1" height="1" fill="#663931" />
<rect x="65" y="79" width="1" height="1" fill="#663931" />
<rect x="66" y="79" width="1" height="1" fill="#000000" />
<rect x="67" y="79" width="1" height="1" fill="#000000" />
<rect x="60" y="80" width="1" height="1" fill="#000000" />
<rect x="61" y="80" width="1" height="1" fill="#000000" />
<rect x="62" y="80" width="1" height="1" fill="#663931" />
<rect x="63" y="80" width="1" height="1" fill="#663931" />
<rect x="64" y="80" width="1" height="1" fill="#663931" />
<rect x="65" y="80" width="1" height="1" fill="#663931" />
<rect x="66" y="80" width="1" height="1" fill="#000000" />
<rect x="67" y="80" width="1" height="1" fill="#000000" />
<rect x="60" y="81" width="1" height="1" fill="#000000" />
<rect x="61" y="81" width="1" height="1" fill="#000000" />
<rect x="62" y="81" width="1" height="1" fill="#663931" />
<rect x="63" y="81" width="1" height="1" fill="#663931" />
<rect x="64" y="81" width="1" height="1" fill="#663931" />
<rect x="65" y="81" width="1" height="1" fill="#663931" />
<rect x="66" y="81" width="1" height="1" fill="#000000" />
<rect x="67" y="81" width="1" height="1" fill="#000000" />
<rect x="60" y="82" width="1" height="1" fill="#000000" />
<rect x="61" y="82" width="1" height="1" fill="#000000" />
<rect x="62" y="82" width="1" height="1" fill="#000000" />
<rect x="63" y="82" width="1" height="1" fill="#000000" />
<rect x="64" y="82" width="1" height="1" fill="#000000" />
<rect x="65" y="82" width="1" height="1" fill="#000000" />
<rect x="66" y="82" width="1" height="1" fill="#000000" />
<rect x="67" y="82" width="1" height="1" fill="#000000" />
<rect x="60" y="83" width="1" height="1" fill="#000000" />
<rect x="61" y="83" width="1" height="1" fill="#000000" />
<rect x="62" y="83" width="1" height="1" fill="#000000" />
<rect x="63" y="83" width="1" height="1" fill="#000000" />
<rect x="64" y="83" width="1" height="1" fill="#000000" />
<rect x="65" y="83" width="1" height="1" fill="#000000" />
<rect x="66" y="83" width="1" height="1" fill="#000000" />
<rect x="67" y="83" width="1" height="1" fill="#000000" />
</svg>